<svg width="2000" height="2000" viewBox="0 0 2000 2000" fill="none" xmlns="http://www.w3.org/2000/svg">
<g clip-path="url(#clip0_213_131)">
<path d="M2000 0H0V2000H2000V0Z" fill="white"/>
<path d="M316.91 1847.45H631.2L658.26 1722.92L466.53 1722.3L456.67 1747C430.07 1747.56 301.39 1759.76 311.36 1824.07C312.83 1833.53 314 1841.78 316.91 1847.45Z" fill="black"/>
<path d="M1348.47 1847.45H1023.11L996.05 1722.92L1187.78 1722.3L1197.64 1746.96C1224.23 1747.52 1263.89 1757.55 1276.4 1762.82C1288.72 1768 1352.24 1786.82 1354.02 1824.03C1354.27 1832.19 1352.35 1840.27 1348.47 1847.45Z" fill="black"/>
<path d="M406.42 1729.09L701.42 1738.33C756.26 1572.72 780.6 1352.17 810.69 1186.54C818.93 1141.2 820.55 1099 866.63 1099C866.63 1099 919.37 1544.14 936.31 1734.63L1308.86 1726.79C1243.51 1454.91 1142.22 1123.9 1076.86 852.03H612.64C543.9 1122.05 475.16 1459.06 406.42 1729.09Z" fill="#0EBDFF"/>
<path d="M1202.83 657.05L1218.03 621.46C1215.86 590.16 1224.45 559.057 1242.38 533.31L1256.25 464.31C1254.89 457.9 1246.25 415.89 1259.03 410.06C1262.63 408.42 1266.71 410.19 1269.82 411.6C1292.53 421.86 1297.39 455.04 1298.18 460.92C1298.89 477.36 1299.61 493.8 1300.33 510.24C1301.71 511.189 1303.28 511.82 1304.94 512.086C1306.59 512.352 1308.28 512.248 1309.89 511.78L1376.16 494.52C1379.16 493.78 1391.75 491 1403.29 498.22C1415.98 506.15 1422.17 522.95 1418.08 539.83C1421.99 543.78 1425.04 548.505 1427.02 553.7C1433.65 571.3 1425.02 587.7 1423.32 590.7C1425.21 594.15 1428.77 601.86 1426.68 610.36C1423.38 623.78 1408.35 629.58 1399.6 632.96C1390.36 636.479 1380.46 637.91 1370.6 637.15C1365.04 646.184 1357.42 653.776 1348.37 659.309C1339.32 664.842 1329.1 668.159 1318.52 668.99C1316.93 673.53 1315.34 678.073 1313.74 682.62L1202.83 657.05Z" fill="#FF9E9F"/>
<path d="M1363.11 516.25C1361.35 516.55 1343.5 519.85 1337.22 535.15C1336.22 537.64 1332.73 546.15 1336.57 552.38C1342.57 562.18 1361.88 559.51 1374.57 557.76C1394.37 555.03 1410.22 552.85 1416.9 539.88C1424.4 525.33 1414.9 507.76 1413.2 504.74" stroke="black" stroke-width="4.62" stroke-linecap="round" stroke-linejoin="round"/>
<path d="M1364.09 559C1348 566.69 1340.88 580.89 1344.41 590.19C1344.91 591.5 1347.13 596.67 1355.51 600.05C1369.71 601.82 1394.79 602.8 1415.92 590.39C1421.34 587.21 1424.78 584.16 1427.02 579.91C1435.83 563.19 1419.26 540.73 1417.58 538.52" stroke="black" stroke-width="4.62" stroke-linecap="round" stroke-linejoin="round"/>
<path d="M1371.33 601.13C1367.41 603.81 1347.57 617.72 1350.47 627.63C1353.37 637.54 1378.7 640.12 1397.22 633.79C1399.22 633.09 1427.82 622.96 1427.64 604.3C1427.57 597.05 1423.18 591.3 1419.9 587.85" stroke="black" stroke-width="4.62" stroke-linecap="round" stroke-linejoin="round"/>
<path d="M1301.57 523.13C1306.23 535.573 1308.74 548.716 1309 562C1309.64 598.75 1292.49 625.56 1285 636" stroke="black" stroke-width="4.62" stroke-linecap="round" stroke-linejoin="round"/>
<path d="M1173 651.36C1167.66 630.53 1156.33 598.29 1130.46 567.83C1096.05 527.31 1054.91 512.34 1010.86 496.93C932.57 469.55 866.69 469.11 826.22 469.19C805.32 469.19 736.55 470.39 650.32 493.84C622.43 501.43 590.82 510.02 555.32 527.14C516.77 545.7 381.86 610.67 361.12 736.75C358.34 753.65 347.36 833.99 398.61 893.75C438.61 940.41 499.15 954.14 513.09 956.85C528.565 959.689 544.22 961.44 559.94 962.09C578.25 962.906 596.596 962.288 614.81 960.24L614.51 890.89H1075C1078.11 894.62 1135.24 960.89 1216.44 947.89C1286.65 936.72 1321.23 874.89 1325.6 866.81C1333.01 853.04 1339.27 826.62 1351.49 774.33C1359.24 741.17 1365.09 713.8 1368.91 695.42L1173 651.36Z" fill="#48BB78"/>
<path d="M1363.52 694L1168.71 649.2L1121.86 813.6" stroke="black" stroke-width="4.62" stroke-linecap="round" stroke-linejoin="round"/>
<path d="M753.2 427.68L745.39 506.59C748.04 510.3 764.96 533.18 795.94 536.59C832.86 540.66 856.82 513.47 858.82 511.11C860.473 483.443 862.12 455.777 863.76 428.11C872.185 427.94 880.411 425.523 887.59 421.11C903.59 410.95 908.28 392.67 911.02 381.25C923.34 329.9 906.9 241.59 904.44 228.77C891.53 222.95 842.66 202.77 785.26 220.96C757.619 229.849 732.809 245.867 713.33 267.4L692.78 331.52C687.6 332.19 678.92 334.18 672.23 340.97C658.23 355.21 662.03 381.36 673.06 397.28C683.61 412.5 704.63 423.95 722.37 418.28C726.976 416.754 731.187 414.227 734.7 410.88L753.2 427.68Z" fill="#FF9E9F"/>
<path d="M881.63 291.64C873.295 287.545 863.866 286.234 854.73 287.899C845.594 289.564 837.234 294.118 830.88 300.89C830.584 308.591 831.949 316.265 834.883 323.391C837.816 330.517 842.249 336.929 847.88 342.19C844.82 343.55 841.46 344.88 837.81 346.1C832.244 347.966 826.544 349.407 820.76 350.41" stroke="black" stroke-width="4.62" stroke-linecap="round" stroke-linejoin="round"/>
<path d="M747.24 309.52C755.227 304.201 764.336 300.802 773.854 299.587C783.373 298.373 793.044 299.377 802.11 302.52" stroke="black" stroke-width="4.62" stroke-linecap="round" stroke-linejoin="round"/>
<path d="M828.21 369.11C809.76 370.71 794.15 360.39 789.57 369.11C785.57 376.7 800.88 396.87 820.4 400.76C837.8 404.22 857.73 394.57 863.76 379.39C866.01 373.71 867.85 363.39 862.76 358.84C856.83 353.57 847.09 367.48 828.21 369.11Z" fill="white" stroke="black" stroke-width="4.62" stroke-linecap="round" stroke-linejoin="round"/>
<path d="M680.86 366.85L718.26 364.8L707.58 402.61" stroke="black" stroke-width="4.62" stroke-linecap="round" stroke-linejoin="round"/>
<path d="M685.33 333.14C681.89 330.96 668.55 321.94 665.25 305.61C661.38 286.54 672.78 265.22 694.02 254.61C705.693 234.635 721.351 217.275 740.02 203.61C750.5 195.99 797.46 161.88 856.74 173.61C867.96 175.83 922.85 186.69 938.12 229.91C945.12 249.65 944.46 279.96 927.02 300.19C923.475 304.289 919.364 307.862 914.81 310.8C914.175 299.774 911.191 289.01 906.06 279.23C898.959 266.049 888.27 255.148 875.23 247.79C827.23 220.03 747.04 237.04 727.69 275.12C721.78 286.75 720.69 300.19 720.69 300.19C719.13 319.61 726.4 334.67 730.14 341.29C727.813 344.17 725.48 347.047 723.14 349.92C718.823 342.691 712.144 337.174 704.23 334.3C698.148 332.226 691.62 331.825 685.33 333.14Z" fill="black"/>
<path d="M1029.55 523.13H697.56C686.327 523.13 677.22 532.236 677.22 543.47V1010.1C677.22 1021.33 686.327 1030.44 697.56 1030.44H1029.55C1040.78 1030.44 1049.89 1021.33 1049.89 1010.1V543.47C1049.89 532.236 1040.78 523.13 1029.55 523.13Z" fill="#163342"/>
<path d="M1011.17 797.46C1000.66 766.1 998.66 738.7 992.17 720.78C974.71 672.3 958.53 658.38 950.51 652.51C944.61 648.21 926.3 634.83 912.56 641.36C903.81 645.53 899.35 656.61 898.67 658.36C896.9 662.95 895.99 669.18 894.17 681.64C893.09 689.03 892.77 692.87 889.67 694.74C885.91 697.02 879.58 695.5 878.91 695.33C877.628 695.006 876.385 694.547 875.2 693.96V680.66L874.48 601.11H852.6L851.89 680.66V694C850.702 694.586 849.455 695.046 848.17 695.37C847.51 695.54 841.17 697.06 837.41 694.78C834.32 692.91 833.99 689.07 832.91 681.68C831.09 669.22 830.18 662.99 828.41 658.4C827.73 656.63 823.28 645.55 814.53 641.4C800.79 634.87 782.47 648.25 776.58 652.55C768.58 658.42 752.38 672.34 734.91 720.82C725.981 745.666 719.615 771.36 715.91 797.5C695.08 835.16 693.12 874.44 710.69 891.19C735.05 914.41 796.36 893.82 821.8 854.42C834.88 834.15 836.06 812.65 835.62 800.42C835.193 775.3 834.76 750.177 834.32 725.05C834.524 723.595 835.158 722.233 836.14 721.14C838.36 718.78 841.78 718.79 843.71 718.79C849.14 718.79 855.64 718.55 863.53 718.27C871.42 718.55 877.91 718.77 883.35 718.79C885.27 718.79 888.7 718.79 890.91 721.14C891.89 722.235 892.527 723.595 892.74 725.05C892.3 750.17 891.863 775.293 891.43 800.42C890.99 812.64 892.18 834.14 905.26 854.42C930.69 893.82 992 914.42 1016.36 891.19C1034 874.4 1024.86 838.27 1011.17 797.46Z" stroke="white" stroke-width="4.62" stroke-miterlimit="10"/>
<path d="M615 745.69C622.285 735.338 627.322 723.576 629.79 711.16C633.88 689.82 627.95 675.91 635.65 670.78C642.12 666.48 653.65 671.38 660 677.26C668.7 685.36 669.13 696.92 669.56 708.39C669.965 720.732 667.757 733.021 663.08 744.45L676.95 754.32C685.95 754.32 699.17 754.14 715.18 753.39C754.62 751.54 774.67 747.84 781.26 758.32C783.88 762.49 783.26 767.17 783.11 768.5C779.68 795.19 709.94 805.79 705.62 806.41C709.74 805.25 768.71 789.17 781.16 809.9C782.435 811.937 783.142 814.278 783.21 816.68C783.39 839.59 713.91 856.11 706.21 857.89C716.05 856.19 764.21 848.37 771.06 864.15C773.06 868.66 770.95 873.55 770.24 875.25C758.37 903.25 649.42 899.91 613.73 898.25L615 745.69Z" fill="#FF9E9F"/>
<path d="M454.82 738.6H614.5V928.48" stroke="black" stroke-width="4.62" stroke-linecap="round" stroke-linejoin="round"/>
<path d="M783.22 767.41C782.959 769.748 782.31 772.026 781.3 774.15C779.935 776.884 778.022 779.307 775.68 781.27C764.07 791.27 747.92 796.13 747.92 796.13C733.801 800.361 719.442 803.744 704.92 806.26" stroke="black" stroke-width="4.62" stroke-linecap="round" stroke-linejoin="round"/>
<path d="M780 808.23C781.948 810.63 783.077 813.592 783.22 816.68C783.28 820.68 781.38 826.19 769.43 834.53C757.48 842.87 746.52 846.31 736 849.46C725 852.74 711.24 856.6 695.18 860.56" stroke="black" stroke-width="4.62" stroke-linecap="round" stroke-linejoin="round"/>
<path d="M1853.77 1746.67H1845.67C1841.84 1746.67 1838.17 1745.15 1835.46 1742.46C1832.74 1739.76 1831.2 1736.1 1831.17 1732.27C1831.13 1725.53 1831.09 1718.79 1831.04 1712.06C1831.01 1708.23 1829.47 1704.57 1826.76 1701.87C1824.05 1699.18 1820.38 1697.66 1816.55 1697.65L1468.96 1697.35C1465.14 1697.35 1461.47 1698.85 1458.76 1701.54C1456.04 1704.22 1454.49 1707.87 1454.45 1711.69C1454.37 1718.57 1454.29 1725.45 1454.22 1732.32C1454.18 1736.14 1452.64 1739.79 1449.92 1742.47C1447.21 1745.16 1443.55 1746.67 1439.73 1746.67H1431.73C1427.88 1746.67 1424.2 1745.14 1421.48 1742.42C1418.76 1739.7 1417.23 1736.02 1417.23 1732.17V1310.17C1417.23 1306.32 1418.76 1302.64 1421.48 1299.92C1424.2 1297.2 1427.88 1295.67 1431.73 1295.67H1853.73C1857.58 1295.67 1861.26 1297.2 1863.98 1299.92C1866.7 1302.64 1868.23 1306.32 1868.23 1310.17V1732.17C1868.23 1736.01 1866.71 1739.69 1864 1742.41C1861.29 1745.13 1857.61 1746.66 1853.77 1746.67Z" stroke="black" stroke-width="5" stroke-linecap="round" stroke-linejoin="round"/>
<path d="M1798.78 1337.67H1483.77C1473.55 1337.67 1465.27 1345.95 1465.27 1356.17V1632.17C1465.27 1642.39 1473.55 1650.67 1483.77 1650.67H1798.78C1809 1650.67 1817.28 1642.39 1817.28 1632.17V1356.17C1817.28 1345.95 1809 1337.67 1798.78 1337.67Z" stroke="black" stroke-width="5" stroke-linecap="round" stroke-linejoin="round"/>
<path d="M1875.27 1257.67H1408.73C1401 1257.67 1394.73 1263.94 1394.73 1271.67V1294.67C1394.73 1302.4 1401 1308.67 1408.73 1308.67H1875.27C1883 1308.67 1889.27 1302.4 1889.27 1294.67V1271.67C1889.27 1263.94 1883 1257.67 1875.27 1257.67Z" fill="white" stroke="black" stroke-width="5" stroke-linecap="round" stroke-linejoin="round"/>
<path d="M1620.26 977.43L1645.17 965C1647.53 963.853 1649.65 962.248 1651.39 960.277C1653.13 958.307 1654.46 956.011 1655.31 953.522C1656.15 951.034 1656.49 948.402 1656.32 945.78C1656.14 943.157 1655.44 940.597 1654.26 938.246C1653.09 935.895 1651.46 933.801 1649.46 932.086C1647.47 930.37 1645.16 929.067 1642.66 928.251C1640.16 927.436 1637.53 927.125 1634.91 927.336C1632.29 927.547 1629.74 928.275 1627.4 929.48V929.43L1602.4 941.91C1596.3 938.995 1589.44 938.059 1582.78 939.235C1576.12 940.41 1569.99 943.637 1565.26 948.465C1560.52 953.293 1557.41 959.48 1556.37 966.161C1555.32 972.842 1556.39 979.683 1559.42 985.728C1562.45 991.772 1567.3 996.718 1573.28 999.873C1579.26 1003.03 1586.08 1004.24 1592.78 1003.33C1599.48 1002.42 1605.73 999.435 1610.65 994.799C1615.58 990.163 1618.93 984.104 1620.24 977.47L1620.26 977.43Z" fill="white" stroke="black" stroke-width="5" stroke-linecap="round" stroke-linejoin="round"/>
<path d="M1657.19 1257.67H1842.26C1842.26 1221.54 1806.26 1191.81 1760 1187.93V992.4C1759.99 971.093 1751.63 950.639 1736.71 935.423C1721.8 920.207 1701.51 911.439 1680.21 911C1667.77 892.194 1649.06 878.413 1627.42 872.112C1605.77 865.81 1582.59 867.397 1562 876.59L1639.73 1050.37C1661.05 1040.83 1678.12 1023.79 1687.68 1002.48C1697.25 981.179 1698.65 957.101 1691.62 934.83C1719.28 942.31 1740.01 972.97 1740.01 1009.69V1187.88C1693.46 1191.57 1657.19 1221.4 1657.19 1257.67Z" fill="white" stroke="black" stroke-width="5" stroke-linecap="round" stroke-linejoin="round"/>
<path d="M1740 1187.88H1760Z" fill="white"/>
<path d="M1740 1187.88H1760" stroke="black" stroke-width="5" stroke-linecap="round" stroke-linejoin="round"/>
<path d="M1740 1173.63H1760Z" fill="white"/>
<path d="M1740 1173.63H1760" stroke="black" stroke-width="5" stroke-linecap="round" stroke-linejoin="round"/>
<path d="M1740 1159.37L1760 1159.43Z" fill="white"/>
<path d="M1740 1159.37L1760 1159.43" stroke="black" stroke-width="5" stroke-linecap="round" stroke-linejoin="round"/>
<path d="M1740 1145.07H1760Z" fill="white"/>
<path d="M1740 1145.07H1760" stroke="black" stroke-width="5" stroke-linecap="round" stroke-linejoin="round"/>
<path d="M1740 1130.82H1760Z" fill="white"/>
<path d="M1740 1130.82H1760" stroke="black" stroke-width="5" stroke-linecap="round" stroke-linejoin="round"/>
<path d="M1740 1116.56L1760 1116.62Z" fill="white"/>
<path d="M1740 1116.56L1760 1116.62" stroke="black" stroke-width="5" stroke-linecap="round" stroke-linejoin="round"/>
<path d="M1740 1102.34L1760 1102.39Z" fill="white"/>
<path d="M1740 1102.34L1760 1102.39" stroke="black" stroke-width="5" stroke-linecap="round" stroke-linejoin="round"/>
<path d="M1740 1088.09L1760 1088.14Z" fill="white"/>
<path d="M1740 1088.09L1760 1088.14" stroke="black" stroke-width="5" stroke-linecap="round" stroke-linejoin="round"/>
<path d="M1740 1073.83L1760 1073.89Z" fill="white"/>
<path d="M1740 1073.83L1760 1073.89" stroke="black" stroke-width="5" stroke-linecap="round" stroke-linejoin="round"/>
<path d="M1740 1059.61L1760 1059.66Z" fill="white"/>
<path d="M1740 1059.61L1760 1059.66" stroke="black" stroke-width="5" stroke-linecap="round" stroke-linejoin="round"/>
<path d="M1740 1045.36L1760 1045.41Z" fill="white"/>
<path d="M1740 1045.36L1760 1045.41" stroke="black" stroke-width="5" stroke-linecap="round" stroke-linejoin="round"/>
<path d="M1740 1031.1L1760 1031.16Z" fill="white"/>
<path d="M1740 1031.1L1760 1031.16" stroke="black" stroke-width="5" stroke-linecap="round" stroke-linejoin="round"/>
<path d="M1740 1016.77L1760 1016.83Z" fill="white"/>
<path d="M1740 1016.77L1760 1016.83" stroke="black" stroke-width="5" stroke-linecap="round" stroke-linejoin="round"/>
<path d="M1740 1002.52L1760 1002.57Z" fill="white"/>
<path d="M1740 1002.52L1760 1002.57" stroke="black" stroke-width="5" stroke-linecap="round" stroke-linejoin="round"/>
<path d="M1739.4 989.8L1759.18 986.8Z" fill="white"/>
<path d="M1739.4 989.8L1759.18 986.8" stroke="black" stroke-width="5" stroke-linecap="round" stroke-linejoin="round"/>
<path d="M1736.23 976.7L1755.51 971.37Z" fill="white"/>
<path d="M1736.23 976.7L1755.51 971.37" stroke="black" stroke-width="5" stroke-linecap="round" stroke-linejoin="round"/>
<path d="M1731.19 965.16L1748.8 955.67Z" fill="white"/>
<path d="M1731.19 965.16L1748.8 955.67" stroke="black" stroke-width="5" stroke-linecap="round" stroke-linejoin="round"/>
<path d="M1724.21 954.41L1739.4 941.41Z" fill="white"/>
<path d="M1724.21 954.41L1739.4 941.41" stroke="black" stroke-width="5" stroke-linecap="round" stroke-linejoin="round"/>
<path d="M1714.57 944.5L1727.32 929.08Z" fill="white"/>
<path d="M1714.57 944.5L1727.32 929.08" stroke="black" stroke-width="5" stroke-linecap="round" stroke-linejoin="round"/>
<path d="M1703.26 937.77L1713.14 920.38Z" fill="white"/>
<path d="M1703.26 937.77L1713.14 920.38" stroke="black" stroke-width="5" stroke-linecap="round" stroke-linejoin="round"/>
<path d="M1693.43 934.3C1693.8 927.633 1694.17 920.967 1694.56 914.3Z" fill="white"/>
<path d="M1693.43 934.3C1693.8 927.633 1694.17 920.967 1694.56 914.3" stroke="black" stroke-width="5" stroke-linecap="round" stroke-linejoin="round"/>
<path d="M1691.22 933.7C1687.96 926.66 1684.7 919.613 1681.43 912.56Z" fill="white"/>
<path d="M1691.22 933.7C1687.96 926.66 1684.7 919.613 1681.43 912.56" stroke="black" stroke-width="5" stroke-linecap="round" stroke-linejoin="round"/>
</g>
<defs>
<clipPath id="clip0_213_131">
<rect width="2000" height="2000" fill="white"/>
</clipPath>
</defs>
</svg>
