<svg width="2000" height="2000" viewBox="0 0 2000 2000" fill="none" xmlns="http://www.w3.org/2000/svg">
<g clip-path="url(#clip0_213_83)">
<path d="M2000 0H0V2000H2000V0Z" fill="white"/>
<path d="M231.11 1478.67H320.44V481.33" stroke="black" stroke-width="5" stroke-linecap="round" stroke-linejoin="round"/>
<path d="M337.33 371.33C282.43 372.46 232.65 403.9 208.67 452.67C172.78 525.67 215.92 594.15 218 597.33C205.72 605.28 131.22 655.27 115.33 752.67C96.5998 867.47 175.76 947.29 183.33 954.67C177.33 959.59 90.0498 1034.41 104.67 1148.67C116.53 1241.41 186.67 1290.97 198 1298.67" stroke="black" stroke-width="5" stroke-linecap="round" stroke-linejoin="round"/>
<path d="M695 1478.67H832V222.23" stroke="black" stroke-width="5" stroke-linecap="round" stroke-linejoin="round"/>
<path d="M857.91 83.65C773.68 85.06 697.32 124.65 660.53 186.11C605.53 278.04 671.65 364.35 674.85 368.36C656.01 378.36 541.73 441.36 517.36 564.05C488.63 708.68 610.05 809.24 621.67 818.53C612.54 824.74 478.58 919 501 1062.93C519.2 1179.77 626.85 1242.2 644.18 1251.93" stroke="black" stroke-width="5" stroke-linecap="round" stroke-linejoin="round"/>
<path d="M1684.79 1462.94H1774.13V465.61" stroke="black" stroke-width="5" stroke-linecap="round" stroke-linejoin="round"/>
<path d="M1791 355.61C1736.1 356.74 1686.32 388.17 1662.34 436.94C1626.45 509.94 1669.59 578.43 1671.67 581.61C1659.39 589.56 1584.89 639.55 1569 736.94C1550.28 851.75 1629.43 931.57 1637 938.94C1631 943.87 1543.73 1018.69 1558.34 1132.94C1570.2 1225.69 1640.34 1275.25 1651.67 1282.94" stroke="black" stroke-width="5" stroke-linecap="round" stroke-linejoin="round"/>
<path d="M912.84 1815.47C1231.16 1815.47 1489.21 1784.23 1489.21 1745.69C1489.21 1707.15 1231.16 1675.91 912.84 1675.91C594.52 1675.91 336.47 1707.15 336.47 1745.69C336.47 1784.23 594.52 1815.47 912.84 1815.47Z" fill="#ECECEC"/>
<path d="M522.34 1677.21C541.65 1684.81 558.27 1690.93 571.22 1695.56C571.22 1695.56 655.06 1725.46 688.35 1720.83C691.61 1720.38 694.89 1720.2 698.15 1719.83C707.05 1718.83 710.85 1718.2 715.58 1720C717.496 1720.74 719.295 1721.75 720.92 1723C720.32 1726.74 719.727 1730.48 719.14 1734.22C728.62 1739.72 751.14 1750.85 779.84 1746.44C792.229 1744.47 804.09 1740.01 814.71 1733.33C816.917 1697.33 819.123 1661.33 821.33 1625.33C820.387 1617.46 817.768 1609.88 813.65 1603.11C796.8 1576.27 754.87 1570.83 708.96 1588.83C711.45 1578.64 707.3 1570.24 702.62 1569.11C698.24 1568.11 693.97 1573.5 693.62 1574C666.87 1585.33 644.93 1588.8 630.55 1590C593.96 1593 549.05 1586.09 522.08 1601.33C514.887 1605.28 508.908 1611.12 504.79 1618.22C503.09 1621.22 497.54 1631.31 498.64 1644C499.86 1658.38 509.21 1671 522.34 1677.21Z" fill="white" stroke="black" stroke-width="5" stroke-linecap="round" stroke-linejoin="round"/>
<path d="M499.41 1649.1C598.781 1693.98 708.957 1709.36 816.82 1693.41Z" fill="white"/>
<path d="M499.41 1649.1C598.781 1693.98 708.957 1709.36 816.82 1693.41" stroke="black" stroke-width="5" stroke-linecap="round" stroke-linejoin="round"/>
<path d="M730.52 1495.11L688.29 1593.78C689.12 1597.55 698.2 1636.32 731.85 1648.44C740.965 1651.67 750.713 1652.69 760.3 1651.44L792.3 1624.37L806.43 1613.09L838.04 1540.93L730.52 1495.11Z" fill="#48BB78"/>
<path d="M706.29 1530L834.29 1581.33L855 1532.67L723.63 1484L706.29 1530Z" fill="#FF9E9F"/>
<path d="M604.89 1590.9C605.25 1594.51 606.49 1601.1 611.56 1606.22C613.28 1607.96 617.88 1612 632 1613.33C647.94 1614.84 655 1610.91 674.22 1609.78C680.704 1609.38 687.206 1609.38 693.69 1609.78C690.566 1604.99 688.708 1599.48 688.29 1593.78C674.58 1595.28 665.34 1596.33 660.23 1596.92C645.7 1598.58 637.18 1599.63 629.82 1594.41C628.211 1593.25 626.761 1591.89 625.51 1590.35" stroke="black" stroke-width="5" stroke-linecap="round" stroke-linejoin="round"/>
<path d="M760.22 1652.89C768.41 1644.79 777.69 1636.36 788.13 1627.89C795.54 1621.89 802.79 1616.45 809.78 1611.56" stroke="black" stroke-width="5" stroke-linecap="round" stroke-linejoin="round"/>
<path d="M1874.26 1642.46C1879.86 1624.53 1884.26 1609.12 1887.63 1597.13C1887.63 1597.13 1909.16 1519.49 1902.81 1489.74C1902.19 1486.83 1901.81 1483.88 1901.26 1480.96C1899.79 1472.96 1898.96 1469.6 1900.26 1465.21C1900.8 1463.44 1901.6 1461.75 1902.62 1460.21L1912.86 1461.08C1917.21 1452.16 1925.79 1431.08 1919.94 1405.49C1917.35 1394.44 1912.54 1384.02 1905.82 1374.87L1807.89 1375.93C1800.85 1377.3 1794.18 1380.16 1788.33 1384.32C1765.2 1401.32 1763.03 1439.49 1782.33 1479.76C1772.96 1478.17 1765.65 1482.47 1764.94 1486.76C1764.27 1490.76 1769.47 1494.28 1769.94 1494.59C1781.94 1518.01 1786.48 1537.59 1788.5 1550.48C1793.63 1583.32 1790.29 1624.32 1805.81 1647.67C1809.85 1653.91 1815.51 1658.92 1822.19 1662.18C1825 1663.51 1834.48 1667.87 1845.86 1666.04C1858.72 1664 1869.54 1654.71 1874.26 1642.46Z" fill="white" stroke="black" stroke-width="5" stroke-linecap="round" stroke-linejoin="round"/>
<path d="M1850.38 1665C1884.41 1572.36 1891.1 1471.89 1869.66 1375.56Z" fill="white"/>
<path d="M1850.38 1665C1884.41 1572.36 1891.1 1471.89 1869.66 1375.56" stroke="black" stroke-width="5" stroke-linecap="round" stroke-linejoin="round"/>
<path d="M1696.28 1466.41L1788.11 1498.08C1791.46 1497.08 1825.87 1486.36 1834.62 1455.2C1836.92 1446.76 1837.2 1437.89 1835.43 1429.32L1808.9 1402.17L1797.8 1390.17L1730.59 1366.34C1719.15 1399.69 1707.71 1433.04 1696.28 1466.41Z" fill="#48BB78"/>
<path d="M1729.36 1486C1742.03 1446.36 1754.69 1406.72 1767.36 1367.09L1722.07 1351.61C1710.29 1392.19 1698.5 1432.77 1686.71 1473.35L1729.36 1486Z" fill="#FF9E9F"/>
<path d="M1791 1573.57C1794.24 1573 1800.11 1571.45 1804.4 1566.57C1805.86 1564.9 1809.21 1560.49 1809.49 1547.65C1809.81 1533.15 1805.8 1527.09 1803.49 1509.76C1802.72 1503.93 1802.31 1498.07 1802.26 1492.19C1800.05 1493.87 1797.63 1495.23 1795.05 1496.26C1792.82 1497.15 1790.5 1497.76 1788.13 1498.1C1790.38 1510.38 1791.93 1518.66 1792.79 1523.23C1795.25 1536.23 1796.79 1543.87 1792.52 1550.85C1791.58 1552.38 1790.44 1553.78 1789.13 1555.01" stroke="black" stroke-width="5" stroke-linecap="round" stroke-linejoin="round"/>
<path d="M1836.78 1429.29C1828.94 1422.43 1820.71 1414.6 1812.39 1405.73C1806.48 1399.44 1801.1 1393.24 1796.23 1387.25" stroke="black" stroke-width="5" stroke-linecap="round" stroke-linejoin="round"/>
<path d="M1027.11 931.56L1056 1014.22L863.33 1136C846.467 1144.61 831.767 1156.91 820.33 1172C813.208 1181.47 807.483 1191.91 803.33 1203C759.997 1300 716.663 1397 673.33 1494L900.33 1584C945.663 1483.67 990.997 1383.34 1036.33 1283L1208.33 1204C1244.03 1246.31 1279.72 1288.62 1315.41 1330.94C1324.95 1345.95 1338.4 1358.08 1354.33 1366L1696.33 1527L1746.22 1320L1472.33 1191C1444.67 1129.67 1417 1068.33 1389.33 1007C1389.61 994.11 1389.33 980.41 1388.33 966C1385.81 930.335 1379.1 895.092 1368.33 861C1308.39 880.784 1247.27 896.815 1185.33 909C1133.02 919.289 1080.21 926.82 1027.11 931.56Z" fill="#5A67D8"/>
<path d="M1073.78 1263.56L1315.11 1149.78C1336.37 1132.96 1353.93 1111.93 1366.67 1088C1385.33 1052.7 1388.01 1020.89 1389.41 1002C1391.13 978.647 1389.54 955.169 1384.69 932.26" stroke="black" stroke-width="5" stroke-linecap="round" stroke-linejoin="round"/>
<path d="M1008.73 1044.1L1153.21 956.39" stroke="black" stroke-width="5" stroke-linecap="round" stroke-linejoin="round"/>
<path d="M1039.49 967C1073.65 966.347 1107.72 963.434 1141.49 958.28C1192.83 950.434 1243.25 937.463 1292 919.56" stroke="black" stroke-width="5" stroke-linecap="round" stroke-linejoin="round"/>
<path d="M855 844.33C849.667 864.89 844.333 885.447 839 906C792.033 932.228 748.952 964.875 711 1003C689.482 1007.09 668.597 1014 648.89 1023.56C638.66 1028.56 634.2 1031.7 630.44 1035.11C612.83 1051.11 609.44 1073.98 608.67 1085.56C606.99 1086.43 592.67 1094.18 591.56 1107.78C591.244 1111.04 591.778 1114.33 593.11 1117.33C598.11 1128.22 612.11 1129.67 613.33 1129.78C613.26 1131 612.87 1141.04 620.89 1148C625.284 1151.71 630.925 1153.62 636.67 1153.33C636.84 1154.61 638.43 1165.23 648.44 1171.11C658.25 1176.87 668.07 1173.36 669.33 1172.89C673.693 1177.48 679.673 1180.19 686 1180.44C690.657 1180.59 695.244 1179.27 699.11 1176.67C703.52 1173.59 705.67 1168.8 709.78 1159.33C712.13 1153.93 713.78 1149.33 714.89 1146C717.96 1144.27 721.08 1142.35 724.22 1140.22C739.283 1129.93 752.191 1116.8 762.22 1101.56L934.67 1000.89C947.745 989.443 958.855 975.93 967.56 960.89C986.86 927.43 988.99 895.16 988.89 878.89L855 844.33Z" fill="#FF9E9F"/>
<path d="M622.67 1043.33C620.19 1049.16 617.79 1055.39 615.56 1062C610.326 1077.47 606.53 1093.39 604.22 1109.56C606.77 1110.88 609.573 1111.64 612.44 1111.78C616.12 1111.93 621.79 1111.08 630.44 1103.78C644.33 1092.06 653.44 1074.26 656.89 1066.89C664.797 1069.21 672.907 1070.77 681.11 1071.56C697.628 1073.09 714.287 1071.51 730.22 1066.89" stroke="black" stroke-width="5" stroke-linecap="round" stroke-linejoin="round"/>
<path d="M650.21 1079.46C652.285 1080.52 653.992 1082.18 655.11 1084.22C658.18 1090.02 654.57 1096.22 654.33 1096.56C656.95 1095.61 659.786 1095.43 662.506 1096.03C665.226 1096.64 667.717 1098 669.688 1099.97C671.658 1101.94 673.027 1104.43 673.633 1107.15C674.239 1109.87 674.058 1112.71 673.11 1115.33C674.46 1114.78 679.71 1112.8 685.11 1115.11C691.39 1117.8 695.31 1125.2 694.33 1133.33C696.36 1131.99 698.715 1131.24 701.143 1131.14C703.572 1131.04 705.98 1131.61 708.11 1132.78C713.31 1135.78 715.81 1142.48 713.78 1148.78L706.67 1165.5" stroke="black" stroke-width="5" stroke-linecap="round" stroke-linejoin="round"/>
<path d="M654.33 1096.56L614.83 1123.83" stroke="black" stroke-width="5" stroke-linecap="round" stroke-linejoin="round"/>
<path d="M673.11 1115.33L638.67 1152.17" stroke="black" stroke-width="5" stroke-linecap="round" stroke-linejoin="round"/>
<path d="M694.33 1133.33C687.563 1144.22 680.787 1155.11 674 1166" stroke="black" stroke-width="5" stroke-linecap="round" stroke-linejoin="round"/>
<path d="M1442 607.33C1432.55 638.57 1424.72 664.94 1418.88 684.7C1396.79 759.62 1391.03 781.89 1386.67 800C1380.14 827 1375.57 849.5 1372.67 864.67C1337.8 876.4 1300.21 887.51 1260 897.33C1183.76 915.946 1106.08 928.047 1027.79 933.5C1009.37 921.603 995.262 904.093 987.56 883.56C931.332 876.799 876.556 861.041 825.33 836.89C826.14 808.31 832.54 698.04 917.78 620.44C986.16 558.2 1066.78 552.07 1137.78 546.67C1268.27 536.74 1375.56 575.15 1442 607.33Z" fill="#0EBDFF"/>
<path d="M940.33 706C961.98 808.5 984.76 882 994.33 898C1000.04 907.446 1006.99 916.08 1015 923.67C1019.01 927.281 1023.3 930.568 1027.83 933.5" stroke="black" stroke-width="5" stroke-linecap="round" stroke-linejoin="round"/>
<path d="M1213.78 705.78C1230.78 715.98 1249.13 726.16 1268.89 736C1307.98 755.47 1348.6 771.714 1390.34 784.57" stroke="black" stroke-width="5" stroke-linecap="round" stroke-linejoin="round"/>
<path d="M1396.29 763.07L1433.78 767.56L1306.67 833.33C1293.83 834.33 1266.73 838.27 1241.78 858.22C1235.41 863.32 1208.35 884.96 1204.89 917.78C1204.33 923.07 1202.1 944.28 1212.89 950.22C1216.69 952.31 1221.05 951.94 1224.44 951.11C1221.27 959.47 1223.79 968.6 1230.22 973.33C1237.49 978.68 1246.22 975.85 1247.11 975.56C1247.11 977.38 1247.32 985.71 1253.78 992C1260.24 998.29 1270.09 999.94 1279.11 996.44C1285.89 998.375 1292.96 999.129 1300 998.67C1331.46 996.53 1350.61 970.08 1354.22 964.89L1393.78 932.89L1563.56 856C1579.3 838.36 1599.4 809 1600.29 772C1601.93 704.11 1538.29 634.05 1440.5 611.68C1431.35 642.06 1422.28 672.727 1413.3 703.68C1407.53 723.573 1401.86 743.37 1396.29 763.07Z" fill="#FF9E9F"/>
<path d="M1220.89 957.78C1226.35 937.191 1236.55 918.165 1250.67 902.22" stroke="black" stroke-width="5" stroke-linecap="round" stroke-linejoin="round"/>
<path d="M1244.15 978.11C1259.52 968.795 1273.61 957.517 1286.07 944.56" stroke="black" stroke-width="5" stroke-linecap="round" stroke-linejoin="round"/>
<path d="M1277.48 997.76C1294.55 990.215 1309.79 979.071 1322.15 965.09" stroke="black" stroke-width="5" stroke-linecap="round" stroke-linejoin="round"/>
<path d="M933.67 431.33C930.49 445.05 926.76 470.9 937 499.33C941.73 512.48 948.56 531.45 968 543C982.63 551.69 997.46 552 1005 551.67L1014.33 597.67C1017.33 601.79 1030.66 618.82 1051.67 620.67C1077.2 622.91 1104.48 601.86 1112.67 568.33C1105.34 547.777 1098 527.223 1090.67 506.67C1098.91 503.636 1106.35 498.77 1112.44 492.44C1114.55 490.24 1134.27 468.9 1126.89 446.89C1124.49 439.487 1119.52 433.183 1112.89 429.11C1106.98 425.673 1100.13 424.196 1093.33 424.89L933.67 431.33Z" fill="#FF9E9F"/>
<path d="M931.11 408.89C928.566 404.353 927.337 399.197 927.56 394C928.83 373.85 955.26 361.85 961.78 358.89C994.33 344.11 1034.92 350.89 1054 363.78C1058.69 366.94 1066 373.14 1078.89 378.44C1087.97 382.19 1090.7 381.73 1096.44 385.78C1107.37 393.46 1111.28 404.78 1112.22 407.78C1114.15 413.957 1114.68 420.483 1113.78 426.89L931.11 408.89Z" fill="#292929"/>
<path d="M932 442.22C980.203 435.068 1029.22 435.368 1077.33 443.11C1079.23 438.851 1082.22 435.17 1086 432.44C1098.53 423.6 1114.22 430.25 1115.39 430.77L1116.28 423.11C1107.74 420.3 1095.79 416.64 1081.28 413.11C1060.9 408.11 1032.36 401.32 995.95 400.89C973.414 400.639 950.916 402.798 928.84 407.33C928.173 418.59 927.507 429.85 926.84 441.11L932 442.22Z" fill="#48BB78"/>
<path d="M940.33 460.67C945.574 457.32 951.613 455.422 957.83 455.17C966.21 454.948 974.404 457.657 981 462.83L967 495.83L982.67 502.67" stroke="black" stroke-width="5" stroke-linecap="round" stroke-linejoin="round"/>
<path d="M999.67 460.42C1005.81 456.971 1012.75 455.208 1019.79 455.31C1026.83 455.412 1033.71 457.375 1039.75 461" stroke="black" stroke-width="5" stroke-linecap="round" stroke-linejoin="round"/>
<path d="M972.56 521.67C978.914 524.456 985.876 525.564 992.78 524.89C1002.64 523.754 1011.78 519.146 1018.56 511.89" stroke="black" stroke-width="5" stroke-linecap="round" stroke-linejoin="round"/>
<path d="M1106.44 446.44L1086 464L1110 468.89" stroke="black" stroke-width="5" stroke-linecap="round" stroke-linejoin="round"/>
<path d="M1072.44 425.56C1071.61 426.56 1054.89 447.28 1061.56 458.89C1062.17 459.97 1064.84 464.6 1069.33 465.11C1073.82 465.62 1077.26 461.88 1077.78 461.33C1083.51 455.29 1080.85 441 1072.44 425.56Z" fill="#0EBDFF"/>
</g>
<defs>
<clipPath id="clip0_213_83">
<rect width="2000" height="2000" fill="white"/>
</clipPath>
</defs>
</svg>
