<svg width="1999" height="1999" viewBox="0 0 1999 1999" fill="none" xmlns="http://www.w3.org/2000/svg">
<g clip-path="url(#clip0_221_83)">
<path d="M1999 0H0.199951V1998.8H1999V0Z" fill="#E2E8F0"/>
<path d="M999.6 1697.5C1451.36 1697.5 1817.59 1677.92 1817.59 1653.76C1817.59 1629.6 1451.36 1610.02 999.6 1610.02C547.836 1610.02 181.61 1629.6 181.61 1653.76C181.61 1677.92 547.836 1697.5 999.6 1697.5Z" fill="#D1D9E3"/>
<path d="M893.33 663.47H600.67C557.774 663.47 523 698.242 523 741.135C523 784.028 557.774 818.8 600.67 818.8H893.33C936.226 818.8 971 784.028 971 741.135C971 698.242 936.226 663.47 893.33 663.47Z" fill="#292929"/>
<path d="M194.56 1069.47C194.31 1062.94 192.79 1048.22 182 1035.47C178.09 1030.85 171.66 1023.3 165 1024.14C153.18 1025.63 147.95 1053.52 146.33 1062.14C142.6 1082.05 139.69 1124.58 173 1189.47C173.54 1196.18 175.591 1202.67 179 1208.47C187.14 1222.23 200.34 1227.15 204.33 1228.47C216.851 1244.06 233.307 1256.03 252 1263.14C298.12 1280.34 339.42 1259.6 346.67 1255.8L387.67 1276.8L781.67 1419.47L1241.83 1212.26L1284.11 1213.69C1301.87 1210.99 1318.41 1203 1331.57 1190.77C1344.72 1178.53 1353.89 1162.62 1357.87 1145.1C1369.3 1126.38 1377.15 1105.69 1381 1084.1C1384.37 1063.3 1383.92 1042.07 1379.67 1021.43C1377.13 1009.08 1372.57 987.95 1361.67 986.1C1358.29 985.52 1355.46 987 1353.67 987.93C1337.67 996.26 1338.15 1023.93 1338.22 1026.54L1335.78 1029.65C1331.06 1023.53 1325.12 1018.46 1318.33 1014.76C1288.8 998.92 1255.67 1017.91 1253 1019.43C1247.69 1022.43 1243 1026.12 1225.67 1046.76C1215.67 1058.76 1201.91 1075.76 1186.33 1097.43H1149.67C1152.16 1070.46 1150.59 1043.26 1145 1016.76C1139.88 992.55 1127.84 939.16 1081.89 893.65C1053.01 865.05 1021.15 849.89 997.11 841.71C988.94 839.17 976.46 835.36 961.17 830.93C935.36 823.46 917.61 818.93 899.61 814.13C881.61 809.33 855.75 802.36 823.51 793.13L820.33 732.13C829.55 726.796 837.874 720.047 845 712.13C869.65 684.61 871.77 650.94 872.79 630.13C874.28 599.55 876.95 544.86 839.67 512.81C812.86 489.81 779.77 490.81 735 492.15C691.07 493.48 651.37 494.69 625 524.15C602.16 549.66 601.89 582.3 601.67 610.15C601.5 630.36 601.03 688.46 642.33 720.81C652.494 728.674 664.134 734.418 676.56 737.7C674.48 758.3 672.403 778.893 670.33 799.48C614.339 812.301 560.15 832.004 509 858.14C435.61 895.8 414.39 923.74 408.33 932.14C381.54 969.28 373.78 1009.07 369.67 1030.14C364.075 1058.9 362.727 1088.32 365.67 1117.47L327.67 1116.14C324.74 1105.54 315.28 1077.03 289 1062.8C281.35 1058.66 270.71 1056.71 249.44 1052.8C216.11 1046.68 209.19 1050.74 206.11 1054.36C202.8 1058.25 202.4 1063.36 202.56 1067.05L194.56 1069.47Z" fill="#FFBBBE"/>
<path d="M677.89 492.36C682.2 505.2 702.25 560.25 761.44 592.8C814.53 622 865.44 614.59 880.11 611.92C882.11 600.92 885.28 575.08 873 547.03C858.2 513.19 830.48 497.89 819.67 491.92C757.4 457.52 687.79 487.86 677.89 492.36Z" fill="#292929"/>
<path d="M708 601.47C699.725 594.09 689.577 589.132 678.67 587.14C656.77 583.24 639.93 593.14 635.67 595.8" stroke="black" stroke-width="5" stroke-linecap="round" stroke-linejoin="round"/>
<path d="M763.11 601.47C771.385 594.09 781.533 589.132 792.44 587.14C814.34 583.24 831.18 593.14 835.44 595.8" stroke="black" stroke-width="5" stroke-linecap="round" stroke-linejoin="round"/>
<path d="M713.5 640.47L740.17 658.14" stroke="black" stroke-width="5" stroke-linecap="round" stroke-linejoin="round"/>
<path d="M695.33 686.14C709.027 694.113 724.679 698.103 740.521 697.661C756.364 697.219 771.768 692.363 785 683.64" stroke="black" stroke-width="5" stroke-linecap="round" stroke-linejoin="round"/>
<path d="M515.67 1327.47C593.06 1319.82 675.43 1314.17 762.33 1311.47C866.7 1308.23 964.99 1309.64 1056.33 1314.14L791 1431.47L515.67 1327.47Z" fill="#5A67D8"/>
<path d="M596.11 818.58C601 900.25 670.75 964.02 752.11 961.69C832.89 959.38 898.62 892.69 899.67 811.47L997 830.58C997.587 892.213 998.18 953.843 998.78 1015.47C1005.38 1026.47 1028 1067.17 1016.33 1116.14C1012.64 1131.45 1006.08 1145.93 997 1158.8L1003 1314.14C923.167 1313.73 840.723 1314.84 755.67 1317.47C676.93 1320 600.483 1323.77 526.33 1328.8V1175.47C517.468 1159.91 511.168 1143.03 507.67 1125.47C498.9 1081.19 510.67 1044.77 517.33 1028.14C512.777 970.14 508.223 912.14 503.67 854.14L596.11 818.58Z" fill="#0EBDFF"/>
<path d="M517.33 1035.14C511.98 1047.02 495.86 1086.8 509.33 1134.14C529.21 1203.99 596.12 1229.14 603.22 1231.69" stroke="black" stroke-width="5" stroke-linecap="round" stroke-linejoin="round"/>
<path d="M996.69 1016.15C1001.23 1022.8 1029.69 1066.09 1015.5 1119.45C1003.37 1164.85 964.98 1199.93 916.67 1210.14" stroke="black" stroke-width="5" stroke-linecap="round" stroke-linejoin="round"/>
<path d="M245.14 1139.68L265.07 1137.47L265.41 1117.47C259.656 1118.14 253.826 1117.42 248.41 1115.36C241.154 1112.52 234.985 1107.45 230.79 1100.88C235.39 1109.39 239.135 1118.33 241.97 1127.58C243.29 1131.79 244.32 1135.84 245.14 1139.68Z" fill="#E2E8F0"/>
<path d="M230.55 1100.29C234.555 1105.74 239.814 1110.15 245.881 1113.14C251.949 1116.13 258.647 1117.61 265.41 1117.47L265.07 1137.47" stroke="black" stroke-width="5" stroke-linecap="round" stroke-linejoin="round"/>
<path d="M329.44 1198.14C307.722 1177.61 279.671 1165.07 249.89 1162.58C247.984 1149.72 244.86 1137.07 240.56 1124.8C238.34 1118.47 219.24 1065.05 201.48 1067.1C196.78 1067.64 193.7 1071.88 192.11 1074.1C171.78 1102.93 198.17 1186.49 202.78 1200.76" stroke="black" stroke-width="5" stroke-linecap="round" stroke-linejoin="round"/>
<path d="M372.33 1187.47C373.23 1194.47 374.78 1214.12 363.33 1234.14C356.917 1245.71 347.317 1255.2 335.67 1261.47C333.25 1262.74 322.17 1268.37 302.67 1269.14C272.81 1270.31 248.45 1259.14 234.67 1251.14" stroke="black" stroke-width="5" stroke-linecap="round" stroke-linejoin="round"/>
<path d="M1315.27 1084.69L1295.34 1082.48L1295.01 1062.48C1300.76 1063.15 1306.59 1062.43 1312.01 1060.37C1319.27 1057.53 1325.44 1052.46 1329.63 1045.89C1325.03 1054.4 1321.29 1063.34 1318.46 1072.59C1317.13 1076.8 1316.1 1080.85 1315.27 1084.69Z" fill="#E2E8F0"/>
<path d="M1329.87 1045.3C1325.86 1050.75 1320.6 1055.15 1314.54 1058.14C1308.47 1061.13 1301.77 1062.62 1295.01 1062.48L1295.34 1082.48" stroke="black" stroke-width="5" stroke-linecap="round" stroke-linejoin="round"/>
<path d="M1231 1143.15C1252.72 1122.62 1280.78 1110.08 1310.56 1107.59C1312.47 1094.73 1315.59 1082.08 1319.89 1069.81C1322.11 1063.48 1341.21 1010.06 1358.97 1012.11C1363.67 1012.65 1366.75 1016.89 1368.34 1019.11C1388.67 1047.94 1362.28 1131.5 1357.67 1145.77" stroke="black" stroke-width="5" stroke-linecap="round" stroke-linejoin="round"/>
<path d="M1188.08 1132.48C1187.18 1139.48 1185.64 1159.13 1197.08 1179.15C1203.49 1190.72 1213.1 1200.21 1224.75 1206.48C1227.17 1207.75 1238.24 1213.38 1257.75 1214.15C1287.6 1215.32 1311.97 1204.15 1325.75 1196.15" stroke="black" stroke-width="5" stroke-linecap="round" stroke-linejoin="round"/>
<path d="M605 1591.47C725.29 1447.47 838 1348.36 921 1283.47C986.07 1232.59 1039.23 1197.77 1106.33 1203.47C1165.6 1208.47 1234.78 1245.06 1263.67 1311.47C1291.22 1374.83 1269.07 1435.47 1258.33 1464.8C1226.71 1551.32 1158.27 1595.01 1134.33 1608.8L813 1610.14C810.07 1632.84 800.94 1647.14 795.67 1654.14C780.13 1674.64 759.04 1682.72 739.67 1690.14C716.53 1699 713.76 1695.27 694.33 1702.14C656.86 1715.38 658.85 1732.2 623.67 1748.8C586.3 1766.44 537.24 1769.58 527.67 1752.8C526.57 1750.83 525.96 1748.62 525.89 1746.36C519.014 1747.7 511.912 1747.32 505.22 1745.25C499.98 1743.59 490.71 1740.64 486.33 1731.69C484.172 1727.04 483.552 1721.83 484.56 1716.8C483.66 1716.8 470.74 1717.12 463.22 1706.36C460.619 1702.57 459.118 1698.14 458.883 1693.55C458.648 1688.96 459.689 1684.39 461.89 1680.36C459.77 1679.62 449.65 1675.86 444.78 1665.25C443.115 1661.5 442.273 1657.44 442.311 1653.34C442.349 1649.23 443.266 1645.19 445 1641.47C452.22 1626.91 478.68 1620.47 509.67 1629.25C529.058 1619.11 549.103 1610.27 569.67 1602.8C581.93 1598.35 593.75 1594.62 605 1591.47Z" fill="#FFBBBE"/>
<path d="M1101.7 1500.24C1108.28 1506.87 1115.41 1512.93 1123 1518.36C1160.32 1545.01 1200.41 1550.07 1223.89 1550.8L1156.33 1616.14L1011 1617C1014.33 1586.85 1017.67 1556.7 1021 1526.55C1049.32 1522.93 1076.7 1513.99 1101.7 1500.21V1500.24Z" fill="#5A67D8"/>
<path d="M1099.33 1560.14C1065.42 1544.6 1029.41 1529.14 991.33 1514.14C952.33 1498.74 914.54 1485.14 878.33 1473.14C829.39 1442.41 790.02 1416.34 763 1398.14C698.93 1354.97 675.61 1336.68 630.33 1314.58C608.59 1303.97 575.13 1288.05 530 1276.14C466.47 1259.37 382.29 1237.14 324.33 1281.14C279.97 1314.81 272.11 1371.23 269.33 1391.14C256.33 1484.14 312.99 1574.14 384.33 1616.14C403.541 1627.4 424.362 1635.66 446.07 1640.63C447.079 1638.32 448.427 1636.17 450.07 1634.25C466.46 1615.43 506.01 1628.05 509.63 1629.25L585.18 1602.36C598.18 1603.3 624.43 1605.19 657.63 1607.47C797.17 1617.06 814.75 1616.77 834.29 1634.14C863.91 1660.45 872.55 1704.66 898.96 1706.8C913.09 1707.95 928.96 1704.8 928.96 1704.8C936.495 1703.31 943.864 1701.08 950.96 1698.14C982.211 1708.33 1015.5 1710.62 1047.85 1704.8C1059.85 1711.08 1073.85 1710.24 1083.58 1702.65C1092.76 1695.46 1094.58 1684.93 1094.97 1682.18C1104.53 1679.83 1113.22 1674.83 1120.06 1667.75C1126.9 1660.67 1131.61 1651.81 1133.63 1642.18C1137.97 1639.26 1148.77 1631.11 1153.29 1616.51C1154.69 1611.98 1155.36 1607.25 1155.29 1602.51C1160.85 1597.18 1164.98 1590.53 1167.29 1583.18C1168.17 1580.3 1175.63 1554.52 1158.96 1542.51C1147.82 1534.51 1131.41 1536.58 1121.63 1544.84C1118.14 1547.83 1115.4 1551.6 1113.63 1555.84L1099.33 1560.14Z" fill="#FFBBBE"/>
<path d="M439.75 1556C420.035 1583.52 391.042 1602.99 358.11 1610.82L458.78 1663.94L584.11 1655C590.517 1637.95 596.923 1620.9 603.33 1603.85C546.336 1598.03 490.893 1581.82 439.75 1556Z" fill="#5A67D8"/>
<path d="M1022.25 1526.41C1046.85 1523.12 1070.75 1515.82 1093 1504.8C1156.86 1473.06 1187.84 1419.45 1199.22 1396.8" stroke="black" stroke-width="5" stroke-linecap="round" stroke-linejoin="round"/>
<path d="M570 1722.14C564.1 1718.82 557.438 1717.1 550.67 1717.14C546.16 1717.14 539.33 1717.25 533.67 1721.8C526.67 1727.43 524.56 1737.03 526 1744.47C526.739 1747.8 528.126 1750.95 530.08 1753.75C537.76 1764.24 562.79 1766.14 592.81 1759.58" stroke="black" stroke-width="5" stroke-linecap="round" stroke-linejoin="round"/>
<path d="M530.56 1704.14C521.56 1696.52 509.43 1694.47 499.44 1699.03C487.96 1704.27 480.08 1717.95 483.67 1728.8C487.26 1739.65 500.58 1743.08 505.44 1744.36C512.179 1746.09 519.243 1746.13 526 1744.47" stroke="black" stroke-width="5" stroke-linecap="round" stroke-linejoin="round"/>
<path d="M509.44 1674.14C508.05 1673.01 496.56 1664.06 482.11 1667.69C472.56 1670.1 460.96 1678.19 460.11 1690.8C459.29 1703.09 468.95 1715.41 483.4 1718.23" stroke="black" stroke-width="5" stroke-linecap="round" stroke-linejoin="round"/>
<path d="M509.67 1629.25C480.67 1618.25 454.5 1624.42 447 1638.58C443.72 1644.78 443.12 1654.17 446.11 1662.58C449.145 1670.77 455.214 1677.48 463.06 1681.31" stroke="black" stroke-width="5" stroke-linecap="round" stroke-linejoin="round"/>
<path d="M777.22 1407.67C795.8 1390.08 822.46 1365.45 855.6 1336.95C885.06 1311.61 908.72 1292.77 931.21 1275.55C986.34 1233.33 1008.62 1221.64 1032.47 1213.91C1050.1 1208.07 1068.45 1204.7 1087 1203.91C1103.29 1203.33 1119.58 1204.82 1135.5 1208.33C1179.04 1218.11 1209.61 1242.42 1225.03 1256.78" stroke="black" stroke-width="5" stroke-linecap="round" stroke-linejoin="round"/>
<path d="M326.33 1470.14C360.77 1506.58 401.309 1536.73 446.12 1559.23C460.64 1566.49 517.92 1594.08 597.59 1603.23C653.77 1609.7 669.22 1601.04 731.67 1608.78C768.135 1613.31 804.078 1621.35 839 1632.78" stroke="black" stroke-width="5" stroke-linecap="round" stroke-linejoin="round"/>
<path d="M1044.33 1663.8C1054.94 1652.23 1072.08 1650.65 1083.33 1659.14C1093.19 1666.58 1096.56 1680.25 1092.33 1691.14C1087.02 1704.82 1070.26 1712.76 1054 1707.47" stroke="black" stroke-width="5" stroke-linecap="round" stroke-linejoin="round"/>
<path d="M1080.33 1622.8C1093.8 1612.8 1110.26 1611.97 1120.67 1619.8C1131.08 1627.63 1131.3 1640.8 1131.31 1642.48C1131.42 1659.12 1116.61 1675.63 1094.1 1682.48" stroke="black" stroke-width="5" stroke-linecap="round" stroke-linejoin="round"/>
<path d="M1104.33 1587.47C1107.99 1583.1 1112.82 1579.87 1118.25 1578.15C1123.69 1576.44 1129.5 1576.32 1135 1577.8C1148.63 1581.62 1155.14 1594.69 1156.33 1604.47C1158.2 1619.76 1148.17 1635.65 1131.33 1642.47" stroke="black" stroke-width="5" stroke-linecap="round" stroke-linejoin="round"/>
<path d="M1156.13 1602.34C1161.17 1597.93 1165.07 1592.38 1167.5 1586.14C1168.5 1583.5 1176.08 1563.75 1163.5 1549.47C1159.77 1545.24 1154.96 1542.11 1149.59 1540.41C1144.22 1538.71 1138.48 1538.49 1133 1539.8C1117.78 1543.63 1112.16 1557.8 1111.67 1559.14L1099.33 1560.14C1063.49 1542.66 1026.78 1527.03 989.33 1513.34C932.96 1492.77 917.02 1492.05 878.33 1473.14C865.19 1466.71 857.54 1462.14 784.75 1412.69C692.29 1349.87 684.51 1343.55 658.46 1329.36C625.756 1311.43 591.622 1296.23 556.41 1283.93C520.397 1271.56 483.24 1262.8 445.49 1257.8C417.49 1254.11 401.01 1254.14 383.61 1257.3C364.474 1260.82 346.105 1267.67 329.34 1277.55" stroke="black" stroke-width="5" stroke-linecap="round" stroke-linejoin="round"/>
<path d="M1725.06 1129.42H1463.23C1473.32 1217.3 1483.41 1305.18 1493.52 1393.06H1689.88C1701.6 1305.18 1713.33 1217.3 1725.06 1129.42Z" stroke="black" stroke-width="5.71" stroke-linecap="round" stroke-linejoin="round"/>
<path d="M1576.52 917.19C1623.71 872.35 1587.86 779.11 1574.31 743.88C1531.87 633.5 1436.31 577.28 1392.75 555.48L1362.08 597.75C1364.35 579.503 1366.61 561.257 1368.87 543.01C1274.49 493.71 1188.24 492.11 1154.26 532.39C1132.81 557.82 1136.86 594.39 1139.82 621.25C1151.53 727.25 1229.42 797.98 1263.46 825.25L1355.46 740.92L1298.54 848.8L1377.94 893.69L1411.53 830.29L1395.89 901.8C1464.26 948.56 1540.22 951.68 1576.52 917.19Z" fill="#099672"/>
<path d="M1897.61 543.87C1935.95 572.87 1922.4 648.05 1917.29 676.46C1901.29 765.46 1841.61 819.07 1813.95 840.58L1787.44 811.72C1791.25 825.4 1795.05 839.067 1798.86 852.72C1739.2 900.9 1679.35 911.72 1650.77 884.72C1632.77 867.72 1631.07 839.29 1629.85 818.48C1625.03 736.23 1670.59 673.48 1690.95 648.89L1765.31 703.02L1712.48 627.02L1762.26 584L1793.4 628.66L1773.76 575.8C1815.63 532.44 1868.13 521.59 1897.61 543.87Z" fill="#099672"/>
<path d="M1859.61 655.44C1784.34 709.829 1722.73 780.952 1679.63 863.206C1636.53 945.459 1613.12 1036.6 1611.24 1129.44H1577.5C1580.09 1097.72 1579.6 1065.83 1576.03 1034.21C1564.39 931.43 1523.03 859.37 1505.61 829.61C1423.96 690.53 1296.51 623.96 1246.06 600.7" stroke="black" stroke-width="5.71" stroke-linecap="round" stroke-linejoin="round"/>
<path d="M603.22 368.16H211.12V408.88H603.22V368.16Z" stroke="black" stroke-width="5" stroke-linecap="round" stroke-linejoin="round"/>
<path d="M361.43 368.16H244.67L234.67 278.19H371.43L361.43 368.16Z" stroke="black" stroke-width="5" stroke-linecap="round" stroke-linejoin="round"/>
<path d="M241.27 278.19C241.27 278.19 189.39 202.48 232.4 190.51C275.41 178.54 331.13 249.92 303.05 253.51C274.97 257.1 293.14 173.7 334.38 183.46C375.62 193.22 353 278.19 353 278.19" stroke="black" stroke-width="5" stroke-linecap="round" stroke-linejoin="round"/>
<path d="M455.73 366.98C502.288 366.98 540.03 329.238 540.03 282.68C540.03 236.122 502.288 198.38 455.73 198.38C409.172 198.38 371.43 236.122 371.43 282.68C371.43 329.238 409.172 366.98 455.73 366.98Z" stroke="black" stroke-width="5" stroke-linecap="round" stroke-linejoin="round"/>
<path d="M468.82 235.29L455.73 282.68L484.16 278.19" stroke="black" stroke-width="5" stroke-linecap="round" stroke-linejoin="round"/>
<path d="M1872.46 1351.96V1282.65H1659.21V1351.96H1741.33V1505.36H1659.21V1574.66H1872.46V1505.36H1790.33V1351.96H1872.46Z" fill="#E2E8F0" stroke="black" stroke-width="5.71" stroke-linecap="round" stroke-linejoin="round"/>
<path d="M1437.25 1663.91C1467.81 1663.91 1492.59 1616.17 1492.59 1557.29C1492.59 1498.41 1467.81 1450.67 1437.25 1450.67C1406.69 1450.67 1381.91 1498.41 1381.91 1557.29C1381.91 1616.17 1406.69 1663.91 1437.25 1663.91Z" fill="#F06D57"/>
<path d="M1437.26 1450.67H1377.67V1663.92H1437.26V1450.67Z" fill="#F06D57"/>
<path d="M1381.91 1663.91C1412.47 1663.91 1437.25 1616.17 1437.25 1557.29C1437.25 1498.41 1412.47 1450.67 1381.91 1450.67C1351.35 1450.67 1326.57 1498.41 1326.57 1557.29C1326.57 1616.17 1351.35 1663.91 1381.91 1663.91Z" fill="#F4E12C"/>
<path d="M1669.71 1663.91C1700.27 1663.91 1725.05 1616.17 1725.05 1557.29C1725.05 1498.41 1700.27 1450.67 1669.71 1450.67C1639.15 1450.67 1614.37 1498.41 1614.37 1557.29C1614.37 1616.17 1639.15 1663.91 1669.71 1663.91Z" fill="#F06D57"/>
<path d="M1669.72 1450.67H1610.13V1663.92H1669.72V1450.67Z" fill="#F06D57"/>
<path d="M1614.37 1663.91C1644.93 1663.91 1669.71 1616.17 1669.71 1557.29C1669.71 1498.41 1644.93 1450.67 1614.37 1450.67C1583.81 1450.67 1559.03 1498.41 1559.03 1557.29C1559.03 1616.17 1583.81 1663.91 1614.37 1663.91Z" fill="#F4E12C"/>
<path d="M1600.83 1581.79C1614.36 1581.79 1625.33 1570.82 1625.33 1557.29C1625.33 1543.76 1614.36 1532.79 1600.83 1532.79C1587.3 1532.79 1576.33 1543.76 1576.33 1557.29C1576.33 1570.82 1587.3 1581.79 1600.83 1581.79Z" fill="#F06D57"/>
<path d="M1600.83 1532.79H1468.33V1581.79H1600.83V1532.79Z" fill="#F06D57"/>
<path d="M601.65 611.67C614.139 602.681 625.548 592.278 635.65 580.67C662.65 549.57 674.12 516.76 679.29 496.41C679.95 493.05 680.02 489.26 677.98 486.33C671.36 476.81 645.89 481.06 630.65 489C594.12 508 588.65 562.59 586.65 583C584.94 600.11 584.3 630.57 597.31 667.67L608 666.9C603.239 648.891 601.097 630.29 601.64 611.67H601.65Z" fill="#292929"/>
<path d="M679.31 496.41C677.8 490.2 680.11 486.33 680.11 486.33C681.19 485.33 682.96 483.77 685.26 482.02C708 463.02 750.53 462.18 786.33 471.67C811 478.2 823.68 486.27 838.33 498C882.82 533.59 873.33 593.8 872.78 604.22C829.66 583 682.62 510 679.31 496.41Z" fill="#292929"/>
</g>
<defs>
<clipPath id="clip0_221_83">
<rect width="1999" height="1999" fill="white"/>
</clipPath>
</defs>
</svg>
